<?xml version="1.0" standalone="no"?><!-- Generator: Gravit.io --><svg xmlns="http://www.w3.org/2000/svg" xmlns:xlink="http://www.w3.org/1999/xlink" style="isolation:isolate" viewBox="0 0 100 100" width="100" height="100"><defs><clipPath id="_clipPath_eePFEuWb0MuKgF53zyK9zSy115U7k1Ax"><rect width="100" height="100"/></clipPath></defs><g clip-path="url(#_clipPath_eePFEuWb0MuKgF53zyK9zSy115U7k1Ax)"><path d=" M 50 1.234 C 22.39 1.234 0 23.62 0 51.235 C 0 73.326 14.327 92.068 34.193 98.68 C 36.692 99.143 37.61 97.595 37.61 96.275 C 37.61 95.082 37.563 91.144 37.542 86.966 C 23.632 89.99 20.696 81.066 20.696 81.066 C 18.422 75.287 15.145 73.75 15.145 73.75 C 10.608 70.647 15.487 70.71 15.487 70.71 C 20.508 71.062 23.151 75.864 23.151 75.864 C 27.611 83.507 34.848 81.297 37.702 80.02 C 38.15 76.788 39.446 74.581 40.876 73.334 C 29.77 72.069 18.096 67.782 18.096 48.623 C 18.096 43.164 20.049 38.704 23.247 35.202 C 22.728 33.942 21.017 28.857 23.732 21.97 C 23.732 21.97 27.93 20.626 37.485 27.096 C 41.474 25.988 45.751 25.432 50 25.413 C 54.25 25.432 58.53 25.988 62.526 27.096 C 72.07 20.626 76.262 21.97 76.262 21.97 C 78.984 28.857 77.272 33.942 76.753 35.202 C 79.959 38.704 81.899 43.164 81.899 48.623 C 81.899 67.827 70.202 72.056 59.068 73.294 C 60.861 74.845 62.459 77.888 62.459 82.553 C 62.459 89.243 62.401 94.628 62.401 96.275 C 62.401 97.605 63.301 99.164 65.836 98.673 C 85.692 92.054 100 73.319 100 51.235 C 100 23.62 77.614 1.234 50 1.234 M 18.938 73.024 C 18.828 73.273 18.437 73.347 18.081 73.176 C 17.718 73.013 17.514 72.674 17.632 72.425 C 17.74 72.17 18.131 72.099 18.493 72.269 C 18.857 72.433 19.064 72.775 18.938 73.024 L 18.938 73.024 Z  M 20.963 75.283 C 20.724 75.504 20.258 75.401 19.942 75.052 C 19.615 74.703 19.554 74.237 19.795 74.012 C 20.041 73.792 20.493 73.896 20.821 74.244 C 21.148 74.596 21.212 75.059 20.963 75.283 L 20.963 75.283 Z  M 22.934 78.162 C 22.628 78.375 22.127 78.176 21.817 77.731 C 21.511 77.286 21.511 76.753 21.824 76.54 C 22.135 76.326 22.628 76.519 22.942 76.959 C 23.247 77.411 23.247 77.945 22.934 78.162 L 22.934 78.162 M 25.635 80.944 C 25.361 81.247 24.777 81.165 24.35 80.753 C 23.913 80.35 23.791 79.778 24.066 79.476 C 24.344 79.173 24.931 79.258 25.361 79.667 C 25.795 80.069 25.928 80.645 25.635 80.944 L 25.635 80.944 Z  M 29.361 82.56 C 29.24 82.951 28.678 83.129 28.112 82.963 C 27.546 82.792 27.176 82.333 27.29 81.937 C 27.408 81.543 27.973 81.358 28.543 81.536 C 29.108 81.706 29.479 82.162 29.361 82.56 L 29.361 82.56 Z  M 33.453 82.86 C 33.467 83.272 32.987 83.614 32.392 83.621 C 31.795 83.635 31.311 83.301 31.304 82.895 C 31.304 82.479 31.774 82.14 32.372 82.13 C 32.966 82.118 33.453 82.45 33.453 82.86 L 33.453 82.86 Z  M 37.261 82.211 C 37.332 82.614 36.919 83.027 36.329 83.137 C 35.748 83.243 35.211 82.994 35.137 82.595 C 35.065 82.183 35.486 81.77 36.065 81.663 C 36.657 81.56 37.186 81.802 37.261 82.211 L 37.261 82.211" fill-rule="evenodd" fill="rgb(27,24,23)"/></g></svg>