<?xml version="1.0" standalone="no"?><!-- Generator: Gravit.io --><svg xmlns="http://www.w3.org/2000/svg" xmlns:xlink="http://www.w3.org/1999/xlink" style="isolation:isolate" viewBox="0 0 192 192" width="192" height="192"><defs><clipPath id="_clipPath_2nCWUYMfnIK9LryfYAY1VYLwOxcDfxIH"><rect width="192" height="192"/></clipPath></defs><g clip-path="url(#_clipPath_2nCWUYMfnIK9LryfYAY1VYLwOxcDfxIH)"><rect width="192" height="192" style="fill:rgb(39,174,96)"/><path d=" M 0 0 L 192 0 L 192 192 L 0 192 L 0 0 Z " fill="none"/><path d=" M 68.924 50.173 L 118.229 36.962 L 100.182 68.22 L 68.924 50.173 L 68.924 50.173 Z  M 117.467 25.156 L 63.68 39.568 L 24.305 107.767 C 20.695 114.019 22.857 122.087 29.109 125.696 L 97.365 165.104 C 103.617 168.714 111.628 166.519 115.238 160.267 L 167.681 69.302 C 171.29 63.05 169.185 55.015 162.933 51.406 L 117.467 25.156 L 117.467 25.156 Z  M 77.481 120.663 C 74.543 118.967 73.527 115.176 75.224 112.238 C 76.92 109.3 80.711 108.284 83.649 109.98 C 86.587 111.676 87.603 115.468 85.907 118.406 C 84.211 121.344 80.419 122.36 77.481 120.663 L 77.481 120.663 Z  M 99.639 101.406 L 83.08 91.846 L 86.164 86.504 C 88.8 81.937 94.656 80.368 99.223 83.005 C 103.79 85.642 105.359 91.498 102.723 96.065 L 99.639 101.406 L 99.639 101.406 Z  M 107.384 105.878 L 104.713 104.336 L 107.797 98.994 C 112.053 91.623 109.524 82.186 102.153 77.93 C 94.782 73.675 85.345 76.203 81.089 83.575 L 78.005 88.916 L 75.334 87.374 C 72.396 85.678 68.605 86.694 66.909 89.632 L 51.489 116.34 C 49.793 119.278 50.808 123.069 53.746 124.765 L 85.796 143.269 C 88.734 144.966 92.525 143.95 94.222 141.012 L 109.642 114.304 C 111.338 111.366 110.322 107.574 107.384 105.878 L 107.384 105.878 Z " fill-rule="evenodd" fill="rgb(255,255,255)"/></g></svg>